<svg xmlns="http://www.w3.org/2000/svg" width="32.371" height="22.761" viewBox="0 0 32.371 22.761">
  <g id="mail" transform="translate(0 0)">
    <g id="Group_86" data-name="Group 86" transform="translate(22.268 1.626)">
      <g id="Group_85" data-name="Group 85" transform="translate(0 0)">
        <path id="Path_73" data-name="Path 73" d="M362.028,101.721l-9.817,9.754,9.817,9.754a2.813,2.813,0,0,0,.285-1.219V102.94A2.813,2.813,0,0,0,362.028,101.721Z" transform="translate(-352.211 -101.721)" fill="#fff"/>
      </g>
    </g>
    <g id="Group_88" data-name="Group 88" transform="translate(1.626 0)">
      <g id="Group_87" data-name="Group 87" transform="translate(0 0)">
        <path id="Path_74" data-name="Path 74" d="M53.62,76H26.94a2.812,2.812,0,0,0-1.219.285L38.269,88.77a2.847,2.847,0,0,0,4.023,0L54.839,76.285A2.812,2.812,0,0,0,53.62,76Z" transform="translate(-25.721 -76)" fill="#fff"/>
      </g>
    </g>
    <g id="Group_90" data-name="Group 90" transform="translate(0 1.626)">
      <g id="Group_89" data-name="Group 89" transform="translate(0 0)">
        <path id="Path_75" data-name="Path 75" d="M.285,101.721A2.812,2.812,0,0,0,0,102.94v17.07a2.812,2.812,0,0,0,.285,1.219l9.817-9.754Z" transform="translate(0 -101.721)" fill="#fff"/>
      </g>
    </g>
    <g id="Group_92" data-name="Group 92" transform="translate(1.626 12.721)">
      <g id="Group_91" data-name="Group 91">
        <path id="Path_76" data-name="Path 76" d="M45.022,277.211,43.633,278.6a4.747,4.747,0,0,1-6.705,0l-1.389-1.389-9.817,9.754a2.812,2.812,0,0,0,1.219.285H53.62a2.812,2.812,0,0,0,1.219-.285Z" transform="translate(-25.721 -277.211)" fill="#fff"/>
      </g>
    </g>
  </g>
</svg>
