<svg xmlns="http://www.w3.org/2000/svg" width="32.371" height="32.371" viewBox="0 0 32.371 32.371">
  <g id="phone-call" transform="translate(0)">
    <g id="Group_77" data-name="Group 77" transform="translate(0 0)">
      <path id="Path_68" data-name="Path 68" d="M32.061,23.757l-4.527-4.517a3.014,3.014,0,0,0-5.012,1.129A3.082,3.082,0,0,1,18.965,22.3c-3.234-.807-7.6-5-8.407-8.389a2.923,2.923,0,0,1,1.94-3.549,3,3,0,0,0,1.132-5L9.1.847a3.234,3.234,0,0,0-4.365,0L1.666,3.912c-3.072,3.227.323,11.778,7.922,19.36s16.168,11.132,19.4,7.905l3.072-3.065A3.217,3.217,0,0,0,32.061,23.757Z" transform="translate(-0.539 0)" fill="#fff"/>
    </g>
  </g>
</svg>
