<svg id="placeholder" xmlns="http://www.w3.org/2000/svg" width="23.068" height="32.269" viewBox="0 0 23.068 32.269">
  <g id="Group_84" data-name="Group 84" transform="translate(0)">
    <g id="Group_83" data-name="Group 83" transform="translate(0)">
      <path id="Path_72" data-name="Path 72" d="M84.522,0A11.547,11.547,0,0,0,72.988,11.534c0,2.611,1.833,6.754,5.447,12.315,2.641,4.062,5.319,7.451,5.346,7.485l.741.935.741-.935c.027-.034,2.705-3.423,5.346-7.485,3.615-5.56,5.447-9.7,5.447-12.315A11.547,11.547,0,0,0,84.522,0Zm0,18.02a6.742,6.742,0,1,1,6.742-6.742A6.749,6.749,0,0,1,84.522,18.02Z" transform="translate(-72.988)" fill="#fff"/>
    </g>
  </g>
</svg>
